<?xml version="1.0" standalone="no"?>
<!DOCTYPE svg PUBLIC "-//W3C//DTD SVG 20010904//EN"
 "http://www.w3.org/TR/2001/REC-SVG-20010904/DTD/svg10.dtd">
<svg version="1.0" xmlns="http://www.w3.org/2000/svg"
 width="300.000000pt" height="300.000000pt" viewBox="0 0 300.000000 300.000000"
 preserveAspectRatio="xMidYMid meet">
<metadata>
Created by potrace 1.11, written by Peter Selinger 2001-2013
</metadata>
<g transform="translate(0.000000,300.000000) scale(0.100000,-0.100000)"
fill="#000000" stroke="none">
<path d="M0 2920 c0 -43 5 -82 10 -85 6 -4 9 -1 8 6 -2 6 2 13 8 16 15 5 14
-27 -2 -64 -17 -38 -20 -69 -10 -103 6 -19 5 -21 -3 -10 -13 19 -14 9 -2 -24
7 -16 7 -26 0 -28 -6 -2 -9 -31 -7 -68 3 -61 4 -63 15 -37 15 33 26 36 13 3
-5 -13 -7 -26 -4 -28 2 -3 -3 -25 -11 -49 -18 -49 -20 -294 -3 -316 5 -7 5
-14 -1 -18 -7 -4 -11 -206 -11 -593 0 -329 3 -582 8 -577 5 6 36 46 69 90 34
44 86 106 115 137 l55 58 0 -33 c0 -17 -2 -24 -4 -15 -4 15 -7 16 -17 5 -8 -7
-15 -56 -19 -127 -5 -89 -18 -159 -56 -310 -27 -107 -56 -216 -64 -242 -9 -25
-13 -49 -10 -52 3 -3 -2 -12 -11 -21 -9 -9 -16 -23 -16 -31 0 -16 -16 -19 -25
-4 -20 32 -25 -7 -25 -195 l0 -205 858 0 859 0 21 23 c12 13 22 29 22 35 0 15
3 15 35 0 24 -11 29 -19 26 -46 -3 -18 83 -16 98 2 7 8 24 15 39 15 15 0 36 2
47 3 14 2 20 -2 19 -14 -2 -17 28 -18 487 -18 l489 0 0 985 c0 542 -2 985 -5
985 -2 0 -11 -12 -18 -26 -9 -17 -24 -28 -39 -30 -22 -2 -25 2 -26 30 -1 36
25 68 66 81 23 7 23 7 22 206 -1 109 -5 199 -9 199 -3 0 -13 -21 -20 -47 -12
-38 -16 -43 -22 -27 -4 10 -8 37 -9 59 l-2 40 -9 -32 c-5 -18 -16 -33 -23 -33
-8 0 -17 -6 -19 -12 -3 -8 -6 -5 -6 5 -1 10 -6 17 -13 15 -18 -6 -48 23 -48
47 0 11 -7 29 -15 39 -8 11 -15 27 -14 35 0 9 7 3 15 -14 15 -30 15 -30 10 20
-2 28 -17 95 -33 150 l-28 100 -3 -52 c-2 -29 -5 -53 -8 -53 -3 0 -16 12 -30
28 l-25 27 5 -40 c19 -130 19 -129 -3 -152 -12 -12 -21 -35 -21 -52 0 -16 -5
-33 -12 -37 -6 -4 -8 -3 -5 3 8 13 -22 48 -48 56 -18 6 -20 2 -20 -46 0 -46
-7 -64 -58 -150 -77 -129 -117 -215 -117 -253 0 -17 11 -52 25 -78 25 -47 34
-127 17 -152 -4 -6 -36 -21 -72 -32 -58 -20 -130 -72 -130 -94 0 -4 130 -7
288 -5 318 2 322 1 322 -57 0 -43 -24 -75 -105 -143 l-69 -58 -202 -3 -202 -3
-17 -92 c-9 -51 -18 -100 -21 -109 -5 -15 16 -17 240 -20 134 -2 248 -6 252
-10 4 -4 8 -29 8 -54 1 -45 -2 -49 -59 -101 -108 -98 -86 -93 -370 -93 l-250
0 -63 67 c-69 75 -85 113 -77 189 4 43 4 45 -4 14 -5 -19 -17 -80 -26 -134
-24 -135 -26 -136 -168 -136 -151 0 -152 1 -144 116 3 49 9 97 12 107 7 16 -3
17 -118 17 l-126 0 -10 -55 c-6 -30 -16 -79 -21 -109 -13 -64 -19 -70 -131
-130 -93 -50 -154 -60 -183 -30 -22 21 -21 36 20 266 19 112 40 230 45 263 25
166 47 268 61 281 9 9 44 17 88 21 l74 6 -45 13 c-89 26 -141 114 -118 200 6
21 20 56 30 76 l19 36 -63 35 c-34 19 -93 52 -132 72 -38 21 -86 48 -105 60
-19 12 -39 24 -45 26 -35 14 -287 188 -322 222 -26 25 -43 35 -43 26 0 -8 28
-64 61 -124 73 -130 114 -218 122 -262 7 -34 -14 -106 -46 -161 -11 -19 -16
-37 -11 -42 5 -5 35 -17 66 -28 71 -25 122 -65 143 -113 l17 -37 120 -4 c134
-5 148 -12 148 -73 0 -33 -50 -99 -101 -133 -15 -9 -39 -26 -54 -37 -20 -14
-51 -21 -109 -25 l-80 -5 -8 -35 c-4 -19 -21 -115 -38 -213 -17 -98 -35 -188
-41 -200 -6 -13 -50 -44 -109 -75 -83 -44 -107 -53 -142 -50 -63 4 -73 31 -54
145 22 136 66 385 71 411 5 21 2 22 -54 22 -79 0 -102 12 -157 82 -71 91 -79
177 -17 179 16 0 146 0 291 -1 195 -1 262 2 262 11 0 23 -70 78 -122 94 -29
10 -61 24 -71 33 -24 21 -23 100 3 151 38 72 36 97 -15 196 -25 50 -66 124
-90 165 -41 67 -45 80 -43 129 3 51 5 55 33 64 32 11 47 26 41 42 -2 6 7 11
19 10 25 0 48 -15 24 -15 -8 0 -20 -9 -27 -20 -10 -17 -10 -20 6 -20 10 0 31
-14 48 -31 40 -42 318 -220 499 -319 83 -45 156 -89 162 -98 7 -9 13 -26 13
-39 0 -25 11 -29 40 -13 18 10 18 11 0 53 -14 31 -17 52 -11 72 9 35 36 44
103 37 45 -4 48 -3 65 26 20 34 55 47 101 38 19 -5 34 -20 52 -53 16 -30 47
-64 83 -91 67 -51 83 -77 91 -152 9 -75 -6 -100 -67 -116 -27 -7 -50 -14 -52
-16 -8 -8 9 -60 21 -65 27 -10 87 9 116 37 34 35 36 73 8 148 -23 60 -25 101
-8 124 7 9 81 53 163 98 173 95 444 267 495 315 19 17 43 35 52 38 11 4 15 13
10 29 -3 12 -7 17 -10 10 -7 -21 -22 -13 -22 12 0 14 -5 37 -10 51 -6 15 -11
59 -11 98 -1 40 -6 86 -11 103 -11 39 5 89 27 80 12 -4 14 1 10 27 -4 18 -11
34 -16 35 -6 3 -5 9 2 18 10 12 0 14 -59 14 l-70 0 0 -99 0 -99 -63 -93 c-35
-51 -72 -101 -82 -112 -10 -10 -16 -25 -13 -34 3 -8 6 -22 6 -31 1 -12 12 -4
35 23 24 27 35 35 35 23 0 -9 -4 -20 -10 -23 -5 -3 -10 -17 -10 -30 0 -14 -9
-39 -20 -57 l-20 -33 0 33 c0 22 -5 32 -16 32 -11 0 -13 6 -9 19 3 11 1 22 -5
26 -5 3 -10 0 -11 -7 0 -7 -7 9 -14 36 -8 28 -12 53 -9 58 3 4 2 8 -3 8 -4 0
-10 54 -11 119 -4 112 -2 121 20 153 12 18 26 35 31 36 4 2 7 16 6 30 0 19 -2
22 -7 11 -8 -17 -44 -17 -50 0 -2 6 -19 11 -37 11 -29 0 -35 -4 -46 -35 -14
-38 -29 -46 -29 -16 0 45 -9 51 -76 51 -64 0 -64 0 -64 -29 0 -16 -7 -34 -15
-41 -17 -14 -20 -40 -4 -40 5 0 7 5 4 10 -8 13 8 13 22 -1 8 -8 10 4 8 43 l-4
53 15 -45 c20 -63 13 -85 -28 -85 -18 -1 -50 -4 -70 -7 -26 -4 -41 -1 -49 8
-6 8 -19 14 -28 15 -22 1 -74 32 -79 48 -3 10 0 11 16 2 11 -6 24 -11 27 -11
12 0 -21 27 -53 44 -18 9 -32 21 -32 26 0 6 -25 10 -56 10 l-55 0 22 -32 c12
-18 32 -42 45 -53 17 -15 21 -27 17 -47 -5 -26 -23 -40 -23 -19 0 5 -8 11 -17
15 -10 3 -26 11 -36 18 -16 11 -21 10 -38 -11 -14 -17 -18 -33 -14 -51 5 -21
2 -29 -12 -34 -10 -4 -19 -2 -21 3 -2 6 -8 8 -13 5 -18 -11 -60 27 -79 72 -11
24 -24 44 -30 44 -6 0 -4 -12 6 -27 11 -19 11 -22 1 -10 -8 9 -17 17 -20 17
-3 0 -7 -8 -9 -17 -3 -15 -7 -12 -23 12 -22 35 -55 69 -55 57 0 -4 5 -13 12
-20 6 -6 9 -14 6 -17 -3 -3 -22 10 -42 28 -25 23 -35 39 -30 50 6 16 -38 17
-555 17 l-561 0 0 -80z m2450 10 c0 -5 -5 -10 -11 -10 -5 0 -7 5 -4 10 3 6 8
10 11 10 2 0 4 -4 4 -10z m-410 -26 c0 -2 -9 -4 -21 -4 -11 0 -18 4 -14 10 5
8 35 3 35 -6z m47 -56 c-3 -7 -5 -2 -5 12 0 14 2 19 5 13 2 -7 2 -19 0 -25z
m-2000 -150 c-3 -8 -6 -5 -6 6 -1 11 2 17 5 13 3 -3 4 -12 1 -19z m2293 -49
c0 -5 5 -7 11 -3 7 4 10 -1 7 -12 -2 -13 -12 -19 -29 -19 -23 -1 -24 1 -15 22
11 24 26 31 26 12z m55 -41 c-4 -18 -7 -39 -8 -45 0 -7 -4 -13 -9 -13 -4 0 -8
6 -8 13 0 8 -4 7 -10 -3 -8 -13 -10 -13 -10 2 0 9 5 18 11 20 9 3 15 21 18 51
1 4 6 7 12 7 8 0 9 -11 4 -32z m-1906 8 c-2 -2 -15 -7 -29 -10 l-25 -7 25 15
c21 12 42 14 29 2z m1668 -38 c-3 -8 -6 -5 -6 6 -1 11 2 17 5 13 3 -3 4 -12 1
-19z m127 7 c-5 -11 1 -15 21 -15 25 0 26 -2 14 -17 -10 -11 -10 -14 -1 -9 7
4 12 2 12 -7 0 -18 -27 -18 -34 0 -7 16 -33 17 -38 2 -2 -7 -9 -10 -16 -8 -7
3 -2 16 14 37 28 35 37 40 28 17z m-2274 -15 c0 -5 -5 -10 -11 -10 -5 0 -7 5
-4 10 3 6 8 10 11 10 2 0 4 -4 4 -10z m2200 -65 c0 -8 -4 -15 -10 -15 -5 0 -7
7 -4 15 4 8 8 15 10 15 2 0 4 -7 4 -15z m-1279 -164 c-12 -8 -12 -12 2 -26 21
-21 21 -26 0 -18 -12 5 -14 3 -8 -8 8 -12 6 -12 -8 0 -9 7 -14 17 -11 22 3 5
-1 9 -8 9 -8 1 -6 6 6 15 11 8 25 15 30 15 6 0 5 -4 -3 -9z m-161 -262 c0 -5
-4 -9 -10 -9 -5 0 -10 7 -10 16 0 8 5 12 10 9 6 -3 10 -10 10 -16z m70 -35 c0
-8 -5 -12 -10 -9 -6 4 -8 11 -5 16 9 14 15 11 15 -7z m-63 -26 c-3 -7 -5 -2
-5 12 0 14 2 19 5 13 2 -7 2 -19 0 -25z m103 -20 c0 -18 -2 -20 -9 -8 -6 8 -7
18 -5 22 9 14 14 9 14 -14z m-118 -18 c16 -23 18 -23 19 -5 1 13 4 10 8 -10 4
-16 4 -34 0 -39 -4 -5 -5 -15 -2 -22 3 -8 -1 -14 -11 -14 -9 0 -16 -7 -16 -15
0 -26 -17 -16 -40 22 l-22 38 21 13 c22 15 29 42 11 42 -5 0 -10 5 -10 10 0
17 24 6 42 -20z m172 -77 c16 -33 15 -34 -1 -31 -12 2 -17 11 -15 27 3 20 1
22 -20 15 -12 -4 -28 -14 -34 -22 -6 -8 -16 -13 -23 -11 -8 3 -3 15 14 36 32
38 56 34 79 -14z m-24 -85 c0 -10 2 -10 8 -1 6 10 15 10 40 1 18 -7 32 -16 32
-20 0 -4 10 -8 23 -8 18 0 19 -2 7 -10 -12 -8 -13 -13 -2 -30 7 -11 8 -20 3
-20 -5 0 -11 5 -13 12 -4 10 -14 9 -45 -1 -49 -16 -73 -10 -73 20 0 15 -5 19
-15 15 -10 -3 -14 0 -12 12 4 26 17 42 33 42 8 0 14 -6 14 -12z m492 -766 c2
-4 35 -34 73 -66 122 -101 135 -128 95 -206 -18 -35 -34 -47 -117 -88 -123
-60 -163 -105 -163 -186 0 -94 70 -156 176 -156 45 0 59 4 79 25 14 13 25 29
25 35 0 7 8 9 20 5 20 -6 21 -4 14 47 -4 29 -7 54 -8 55 -1 2 -89 -38 -95 -43
-3 -2 4 -10 14 -18 17 -12 17 -14 -6 -29 -53 -38 -129 -1 -129 61 0 56 38 94
125 125 125 44 169 88 196 195 7 28 16 52 20 52 4 0 15 3 25 7 15 6 16 0 12
-59 -7 -83 -47 -160 -104 -201 l-41 -29 22 -22 c25 -26 41 -106 30 -156 -4
-16 -16 -35 -28 -41 -12 -6 -35 -23 -50 -38 -27 -24 -34 -26 -127 -26 -93 0
-100 2 -141 30 -63 45 -82 76 -87 145 -11 149 24 204 172 274 50 23 96 49 102
57 28 36 25 51 -18 88 -24 20 -67 60 -96 89 -44 43 -51 56 -42 68 13 15 46 19
52 6z"/>
<path d="M1150 2990 c8 -5 23 -10 33 -10 11 0 27 -10 37 -22 16 -21 18 -21 34
-5 21 21 20 21 81 -2 28 -10 60 -22 73 -26 l23 -7 -21 41 -20 41 -128 0 c-86
0 -122 -3 -112 -10z"/>
<path d="M2571 2974 c-1 -22 5 -34 17 -38 9 -3 24 -9 32 -12 8 -3 6 2 -5 10
-10 9 -25 29 -31 44 l-12 27 -1 -31z"/>
<path d="M2737 2993 c-12 -11 -8 -21 13 -26 12 -3 20 -14 20 -26 0 -12 10 -29
21 -39 12 -9 37 -50 55 -90 19 -40 39 -70 44 -67 10 6 14 -18 11 -61 -2 -23
14 -40 44 -45 14 -3 24 -20 37 -59 l17 -55 0 77 c1 42 -3 79 -8 82 -5 3 -19
32 -31 63 -13 32 -41 95 -62 140 -21 46 -38 89 -38 98 0 12 -13 15 -58 15 -32
0 -62 -3 -65 -7z"/>
<path d="M1690 2949 c0 -5 5 -7 10 -4 6 3 10 8 10 11 0 2 -4 4 -10 4 -5 0 -10
-5 -10 -11z"/>
<path d="M2500 2445 c-12 -13 -50 -42 -84 -64 -33 -22 -66 -45 -73 -51 -7 -5
-15 -10 -18 -10 -5 0 -98 -61 -120 -78 -13 -11 -135 -82 -140 -82 -2 0 -27
-13 -54 -30 -28 -16 -82 -46 -121 -66 -38 -20 -70 -40 -70 -45 0 -4 10 -27 22
-50 73 -141 -12 -272 -176 -272 -64 0 -86 15 -86 60 0 28 -32 94 -54 112 -21
17 -21 70 0 78 8 3 13 12 10 19 -3 8 -1 14 4 14 6 0 10 -5 10 -10 0 -18 44
-80 57 -80 7 0 11 12 10 26 -3 36 17 41 48 10 30 -31 39 -19 25 34 -12 44 -34
69 -102 116 -31 22 -51 45 -64 78 -20 48 -34 59 -34 28 0 -39 -37 -57 -111
-56 -60 2 -66 0 -53 -13 25 -26 46 -74 40 -97 -3 -13 -23 -29 -53 -42 l-48
-21 47 -23 c88 -41 141 -126 124 -195 -5 -21 -12 -25 -41 -25 -18 0 -37 -4
-40 -10 -3 -6 4 -10 18 -10 41 0 50 -22 43 -103 -3 -39 -9 -89 -12 -109 l-6
-38 121 0 c89 0 123 3 125 13 2 6 10 56 19 111 8 54 21 105 29 112 27 27 236
30 278 4 10 -6 15 -26 15 -58 l0 -50 28 24 c16 13 36 24 45 24 30 0 121 71
127 101 10 44 85 106 154 126 71 21 73 29 34 99 -22 39 -28 61 -27 109 1 66 3
71 116 278 39 70 68 130 66 132 -3 3 -15 -6 -28 -20z m-264 -333 c21 -17 39
-93 26 -107 -9 -9 -10 -75 -1 -75 4 0 2 -11 -4 -25 -14 -29 -24 -31 -49 -8
-17 15 -20 15 -28 3 -14 -22 -12 -27 11 -33 12 -3 18 -10 14 -16 -4 -8 -12 -8
-26 -1 -15 9 -19 7 -19 -5 0 -9 -5 -13 -11 -9 -16 9 -29 -17 -23 -43 6 -21 4
-22 -26 -16 -30 6 -32 5 -21 -15 9 -18 7 -21 -21 -31 -40 -14 -68 -14 -68 0 0
6 -7 9 -15 5 -10 -3 -15 1 -16 12 -2 30 3 57 11 60 4 2 5 23 2 47 -3 32 -1 45
8 45 9 0 7 8 -5 26 -17 26 -17 27 4 21 11 -3 21 -1 21 3 0 5 24 20 54 34 33
16 56 33 59 46 4 17 10 20 31 14 16 -4 26 -2 26 4 0 6 9 14 20 17 20 6 29 45
10 45 -5 0 -10 5 -10 10 0 15 23 12 46 -8z m-742 -99 c3 -10 9 -24 12 -30 10
-22 -14 -14 -43 14 -17 16 -21 24 -10 20 9 -4 17 -2 17 3 0 17 17 11 24 -7z
m89 -12 c5 -5 4 -11 -1 -15 -6 -3 -18 1 -26 10 -9 8 -16 11 -16 5 0 -6 -7 -11
-15 -11 -8 0 -15 7 -15 16 0 13 7 15 32 10 18 -3 36 -10 41 -15z"/>
<path d="M2132 2001 c-10 -6 -7 -10 11 -13 18 -4 24 -1 20 9 -6 15 -13 16 -31
4z"/>
<path d="M2050 1885 c0 -8 5 -15 10 -15 6 0 10 6 10 13 0 9 3 8 9 -2 5 -8 11
-9 15 -3 3 5 -1 13 -10 16 -25 10 -34 7 -34 -9z"/>
<path d="M2010 1836 c0 -17 28 -41 37 -32 3 3 1 6 -5 6 -7 0 -12 9 -12 20 0
11 -4 20 -10 20 -5 0 -10 -6 -10 -14z"/>
<path d="M1195 1899 c-15 -69 44 -129 129 -129 33 0 46 4 46 14 0 17 -87 96
-106 96 -7 0 -21 11 -32 25 -25 32 -29 31 -37 -6z"/>
<path d="M234 1598 c15 -18 39 -50 54 -70 l27 -37 97 -1 c74 0 96 -3 93 -12
-3 -7 -16 -78 -30 -158 -14 -80 -36 -206 -49 -280 -13 -74 -23 -136 -22 -137
1 -1 47 23 103 53 l101 54 11 82 c10 67 42 251 67 376 4 21 9 22 95 22 l90 0
79 67 c44 36 80 68 80 70 0 1 -185 3 -411 3 l-412 0 27 -32z m350 -203 c3 -8
1 -15 -4 -15 -6 0 -10 7 -10 15 0 8 2 15 4 15 2 0 6 -7 10 -15z"/>
<path d="M1175 1618 c-2 -7 -9 -47 -15 -88 -10 -72 -33 -206 -86 -486 -13 -72
-24 -134 -24 -138 0 -4 45 17 100 45 93 49 100 55 106 88 4 20 14 77 24 126
l17 90 191 3 c106 1 192 1 192 -2 0 -5 -38 -192 -45 -223 -5 -23 -4 -23 88
-23 l92 0 19 103 c10 56 24 143 32 192 16 95 52 278 60 308 5 15 -4 17 -90 17
-53 0 -96 -1 -96 -2 -2 -20 -40 -241 -42 -243 -2 -2 -90 -5 -196 -6 -153 -2
-190 -5 -181 -15 6 -8 7 -14 0 -18 -6 -4 -8 -12 -6 -19 3 -7 0 -19 -5 -27 -8
-13 -11 -13 -19 -1 -12 18 -43 7 -35 -13 7 -19 -27 -38 -47 -25 -12 8 -11 12
5 24 18 14 16 45 -3 45 -16 0 0 111 24 157 13 25 13 25 25 4 6 -12 15 -19 20
-16 4 3 7 -3 6 -12 -4 -21 13 -73 23 -73 6 0 51 199 51 228 0 9 -25 12 -90 12
-64 0 -92 -4 -95 -12z m631 -147 c-4 -5 0 -12 6 -14 8 -3 6 -6 -5 -6 -10 -1
-15 -5 -12 -11 3 -5 1 -10 -5 -10 -7 0 -9 7 -6 16 3 9 6 20 6 25 0 5 5 9 11 9
5 0 8 -4 5 -9z m-17 -82 c3 -22 4 -23 12 -4 7 19 8 19 8 -2 1 -12 -5 -24 -11
-26 -10 -4 -9 -8 2 -16 13 -9 13 -11 -2 -11 -10 0 -18 -4 -18 -10 0 -5 6 -10
13 -10 9 0 12 -11 9 -35 -2 -19 -8 -35 -13 -35 -5 0 -9 5 -9 10 0 6 -4 10 -10
10 -5 0 -10 -7 -10 -15 0 -8 7 -15 15 -15 11 0 13 -9 9 -42 -4 -24 -10 -44
-15 -46 -5 -2 -9 -9 -9 -16 0 -7 -7 -13 -15 -13 -8 0 -12 4 -9 8 2 4 -1 11 -6
14 -6 4 -10 17 -9 28 2 12 -10 46 -25 75 l-27 53 21 33 c29 48 73 96 85 92 6
-1 12 -13 14 -27z"/>
<path d="M1745 1160 c-3 -5 -2 -10 4 -10 5 0 13 5 16 10 3 6 2 10 -4 10 -5 0
-13 -4 -16 -10z"/>
<path d="M2125 1560 c-89 -78 -81 -57 -119 -278 l-24 -133 57 -69 56 -69 223
0 224 -1 74 61 c41 34 74 64 74 68 0 3 -120 4 -266 3 l-267 -4 6 24 c11 43 46
233 52 281 l6 47 211 0 210 0 79 66 c43 36 79 68 79 70 0 2 -134 4 -297 4
l-298 -1 -80 -69z m-29 -346 c-22 -22 -36 -24 -19 -2 6 7 9 24 8 38 -3 36 19
46 26 12 4 -19 0 -33 -15 -48z m34 -16 c0 -6 -7 -20 -17 -30 -15 -17 -15 -18
5 -18 21 0 28 -10 16 -23 -10 -9 -41 10 -48 29 -4 10 1 24 11 35 21 21 33 24
33 7z"/>
<path d="M1951 1404 c-7 -41 -11 -78 -8 -80 2 -2 10 30 17 71 7 41 11 78 8 80
-3 3 -11 -29 -17 -71z"/>
<path d="M1932 1280 c0 -14 2 -19 5 -12 2 6 2 18 0 25 -3 6 -5 1 -5 -13z"/>
</g>
</svg>
